<svg width="286" height="284" viewBox="0 0 286 284" fill="none" xmlns="http://www.w3.org/2000/svg">
<path d="M167.705 20.5073L192.87 70.8988C196.302 77.9136 205.453 84.642 213.174 85.9304L258.786 93.5177C287.955 98.3851 294.818 119.572 273.799 140.473L238.339 175.977C232.334 181.989 229.045 193.585 230.904 201.888L241.056 245.837C249.063 280.625 230.618 294.082 199.877 275.901L157.124 250.562C149.403 245.981 136.678 245.981 128.814 250.562L86.0612 275.901C55.4626 294.082 36.8747 280.482 44.8818 245.837L55.0337 201.888C56.8924 193.585 53.6038 181.989 47.5985 175.977L12.1384 140.473C-8.7373 119.572 -2.01704 98.3851 27.1517 93.5177L72.7637 85.9304C80.3419 84.642 89.4928 77.9136 92.9245 70.8988L118.09 20.5073C131.816 -6.83578 154.122 -6.83578 167.705 20.5073Z" fill="#FFD15B"/>
</svg>
