<svg width="285" height="283" viewBox="0 0 285 283" fill="none" xmlns="http://www.w3.org/2000/svg">
<path d="M167.119 20.4351L192.196 70.6492C195.616 77.6392 204.735 84.3439 212.429 85.6278L257.881 93.1884C286.948 98.0387 293.787 119.151 272.842 139.979L237.506 175.357C231.522 181.348 228.245 192.903 230.097 201.177L240.213 244.972C248.192 279.637 229.812 293.046 199.178 274.929L156.575 249.679C148.881 245.115 136.2 245.115 128.363 249.679L85.7603 274.929C55.2687 293.046 36.7457 279.494 44.7248 244.972L54.8412 201.177C56.6935 192.903 53.4164 181.348 47.432 175.357L12.096 139.979C-8.70675 119.151 -2.00999 98.0387 27.0568 93.1884L72.5093 85.6278C80.0609 84.3439 89.1799 77.6392 92.5996 70.6492L117.677 20.4351C131.355 -6.81171 153.583 -6.81171 167.119 20.4351Z" fill="#797979"/>
</svg>
