<?xml version="1.0" encoding="utf-8"?>
<svg viewBox="0 0 90.66 122.88" style="enable-background:new 0 0 90.66 122.88" xmlns="http://www.w3.org/2000/svg">
  <g>
    <path d="M 33.447 51.175 C 35.636 52.205 37.964 53.285 40.266 54.685 L 37.85 70.125 C 35.825 68.065 33.472 66.065 29.52 64.535 L 29.293 64.455 C 22.513 62.775 18.698 64.135 13.431 66.015 C 8.977 67.605 4.51 69.175 0.068 70.755 L 4.947 85.505 L 17.496 81.065 L 19.248 80.395 C 20.173 80.135 21.049 79.765 21.874 79.415 C 22.95 78.965 23.889 78.565 24.177 78.695 C 25.528 79.345 26.904 80.895 28.493 82.695 C 32.409 87.125 37.476 92.825 48.349 93.535 C 68.665 94.875 68.228 93.835 82.727 79.115 L 90.334 69.445 L 80.75 60.255 C 76.547 64.515 73.031 69.765 69.041 74.255 C 67.489 76.025 66.089 77.595 64.448 78.325 C 63.436 78.765 61.972 78.765 60.246 78.725 L 64.112 57.755 C 64.549 55.435 64.612 53.225 64.236 51.165 C 63.911 49.365 63.236 47.695 62.172 46.165 C 64.124 39.705 66.701 31.785 69.391 24.035 C 72.094 16.255 74.921 8.585 77.323 2.665 L 78.412 -0.005 L 62.322 0.085 L 61.784 1.125 C 59.358 5.835 56.742 12.015 54.277 18.475 C 51.676 25.295 49.248 32.445 47.397 38.525 C 45.145 37.875 42.705 37.125 40.441 36.385 C 38.189 35.645 36.225 34.925 35.036 34.365 C 34.774 34.245 34.436 33.495 34.073 32.685 L 33.96 32.445 C 33.61 31.695 33.459 30.885 33.41 30.015 C 33.348 29.035 33.41 27.945 33.472 26.765 C 33.472 17.985 34.06 8.855 34.336 0.045 L 19.06 0.095 L 18.084 24.505 C 18.059 25.225 18.034 25.585 18.021 25.925 L 18.021 25.955 C 17.958 26.995 17.909 27.995 17.885 29.095 C 17.885 30.185 17.909 31.265 18.021 32.335 C 19.422 44.605 25.753 47.575 33.447 51.175 Z M 33.148 121.475 C 36.288 123.015 40.003 123.365 43.544 122.145 C 47.109 120.925 49.837 118.365 51.375 115.215 C 52.901 112.065 53.253 108.335 52.038 104.775 C 50.826 101.195 48.273 98.455 45.145 96.915 C 42.006 95.375 38.289 95.025 34.749 96.245 C 31.183 97.465 28.455 100.025 26.917 103.175 C 25.391 106.325 25.041 110.055 26.253 113.615 C 27.467 117.185 30.019 119.925 33.148 121.475 Z" style="transform-box: fill-box; transform-origin: 50% 50%; fill: rgb(255, 255, 255);" transform="matrix(-1, 0, 0, -1, -0.000001, -0.000004)"/>
  </g>
</svg>